<svg width="675" height="544" viewBox="0 0 675 544" fill="none" xmlns="http://www.w3.org/2000/svg">
<path d="M406 269L570.707 501.964C571.831 503.554 573.658 504.5 575.606 504.5H655.185C663.296 504.5 668.033 495.351 663.351 488.728L368.793 72.0366C367.669 70.4458 365.842 69.5 363.894 69.5H286.701C277.787 69.5 272.575 79.5461 277.707 86.8338L406 269Z" fill="white"/>
<path fill-rule="evenodd" clip-rule="evenodd" d="M255.005 346.25C260.77 354.758 259.53 366.189 252.074 373.263L78.4863 537.97C66.9625 548.904 47.9064 541.709 46.4848 525.887L0.845798 17.9426C-0.447779 3.54553 18.2712 -3.13014 26.3796 8.83654L255.005 346.25ZM111.419 393.951C104.456 399.002 94.6513 394.467 93.9916 385.891L81.0961 218.249C80.9375 216.187 83.6287 215.27 84.7625 216.998L158.396 329.26C166.011 340.869 163.161 356.412 151.924 364.565L111.419 393.951Z" fill="white"/>
<path d="M143.853 0.775391H70.7688C57.293 0.775391 56.2078 11.2444 65.5856 23.2064L298.313 376.364C306.089 390.97 314.382 390.97 324.748 376.364C324.748 376.364 537.261 87.3694 539.853 82.6746C542.444 77.9797 548.665 64.4168 539.853 60.2436H466.251C466.251 60.2436 448.628 59.2003 442.927 67.5467C437.225 75.8931 333.559 216.217 333.559 216.217C321.365 236.616 316.314 237.18 300.906 216.217L143.853 0.775391Z" fill="url(#paint0_linear_233_137)"/>
<path d="M516.01 244.386L485.429 200.046C484.033 194.111 483.866 190.792 486.984 184.918C486.984 184.918 572.507 65.9818 573.502 64.9383C574.498 63.8949 576.136 61.2868 579.246 61.2868H641.445C655.168 62.5147 657.277 67.0126 655.958 78.5013L546.073 240.213C534.456 254.15 527.91 258.088 516.01 244.386Z" fill="url(#paint1_linear_233_137)"/>
<path d="M391.612 315.853C398.699 307.25 402.667 308.856 409.753 315.853L447.591 366.974C451.835 374.996 451.807 379.346 447.591 386.797L358.439 505.733C351.922 513.185 347.762 515.347 339.261 515.123H270.324C255.983 508.139 254.372 501.9 264.623 486.432L391.612 315.853Z" fill="url(#paint2_linear_233_137)"/>
<defs>
<linearGradient id="paint0_linear_233_137" x1="346" y1="101.5" x2="346" y2="409.5" gradientUnits="userSpaceOnUse">
<stop stop-color="#79C7E7"/>
<stop offset="1" stop-color="#E575CC"/>
</linearGradient>
<linearGradient id="paint1_linear_233_137" x1="357.87" y1="96.5097" x2="357.87" y2="301.988" gradientUnits="userSpaceOnUse">
<stop stop-color="#79C8E8"/>
<stop offset="1" stop-color="#E575CC"/>
</linearGradient>
<linearGradient id="paint2_linear_233_137" x1="357.87" y1="96.5097" x2="357.87" y2="301.988" gradientUnits="userSpaceOnUse">
<stop stop-color="#3B90E5"/>
<stop offset="1" stop-color="#E575CC"/>
</linearGradient>
</defs>
</svg>
